<?xml version="1.0" encoding="UTF-8" standalone="no"?>
<!DOCTYPE svg PUBLIC "-//W3C//DTD SVG 20010904//EN"
              "http://www.w3.org/TR/2001/REC-SVG-20010904/DTD/svg10.dtd">

<svg xmlns="http://www.w3.org/2000/svg"
     width="8.88889in" height="5.55556in"
     viewBox="0 0 640 400">
  <path id="Auswahl"
        fill="none" stroke="black" stroke-width="1"
        d="M 202.43,150.12
           C 198.77,146.88 199.69,140.69 206.02,138.82
             210.07,137.34 214.89,138.46 219.00,138.82
             219.00,138.82 219.00,145.00 219.00,145.00
             212.74,142.36 212.77,141.85 206.00,143.00
             206.00,143.00 206.00,146.00 206.00,146.00
             206.00,146.00 213.98,147.79 213.98,147.79
             219.06,149.56 221.87,154.26 217.69,158.72
             214.49,162.13 204.05,163.72 201.02,159.49
             200.06,158.15 200.13,156.55 200.00,155.00
             206.53,157.59 206.99,158.19 214.00,157.00
             214.00,157.00 214.00,154.00 214.00,154.00
             210.84,153.36 204.80,152.22 202.43,150.12 Z
           M 269.43,150.12
           C 265.77,146.88 266.69,140.69 273.02,138.82
             277.07,137.34 281.89,138.46 286.00,138.82
             286.00,138.82 286.00,145.00 286.00,145.00
             279.74,142.36 279.77,141.85 273.00,143.00
             273.00,143.00 273.00,146.00 273.00,146.00
             273.00,146.00 280.98,147.79 280.98,147.79
             286.06,149.56 288.87,154.26 284.69,158.72
             281.49,162.13 271.05,163.72 268.02,159.49
             267.06,158.15 267.13,156.55 267.00,155.00
             273.53,157.59 273.99,158.19 281.00,157.00
             281.00,157.00 281.00,154.00 281.00,154.00
             277.84,153.36 271.80,152.22 269.43,150.12 Z
           M 232.00,161.90
           C 230.30,161.78 228.57,161.48 227.04,160.69
             217.82,155.90 222.63,142.30 234.00,144.23
             236.56,144.67 238.52,145.79 239.83,148.11
             240.89,150.00 240.88,151.92 241.00,154.00
             241.00,154.00 228.00,154.00 228.00,154.00
             232.63,159.08 235.01,157.94 241.00,156.00
             241.00,156.00 241.00,161.00 241.00,161.00
             237.86,161.56 235.24,162.15 232.00,161.90 Z
           M 252.00,146.00
           C 263.67,138.52 262.00,155.91 262.00,162.00
             262.00,162.00 256.00,162.00 256.00,162.00
             256.00,160.05 256.85,149.81 253.17,150.62
             250.27,151.26 251.00,159.69 251.00,162.00
             251.00,162.00 245.00,162.00 245.00,162.00
             245.00,162.00 245.00,144.00 245.00,144.00
             245.00,144.00 252.00,146.00 252.00,146.00 Z
           M 299.00,161.90
           C 297.30,161.78 295.57,161.48 294.04,160.69
             284.82,155.90 289.63,142.30 301.00,144.23
             303.56,144.67 305.52,145.79 306.83,148.11
             307.89,150.00 307.88,151.92 308.00,154.00
             308.00,154.00 295.00,154.00 295.00,154.00
             299.63,159.08 302.01,157.94 308.00,156.00
             308.00,156.00 308.00,161.00 308.00,161.00
             304.86,161.56 302.24,162.15 299.00,161.90 Z
           M 319.00,146.00
           C 319.00,146.00 324.00,144.00 324.00,144.00
             324.00,144.00 324.00,149.00 324.00,149.00
             316.32,150.29 318.00,155.60 318.00,162.00
             318.00,162.00 312.00,162.00 312.00,162.00
             312.00,162.00 312.00,144.00 312.00,144.00
             312.00,144.00 319.00,146.00 319.00,146.00 Z
           M 332.00,144.00
           C 332.00,144.00 336.00,156.00 336.00,156.00
             336.00,156.00 340.00,144.00 340.00,144.00
             340.00,144.00 346.00,144.00 346.00,144.00
             344.36,148.73 340.88,163.37 334.20,161.69
             330.12,160.66 326.37,147.95 325.00,144.00
             325.00,144.00 332.00,144.00 332.00,144.00 Z
           M 357.00,161.90
           C 355.30,161.78 353.57,161.48 352.04,160.69
             342.82,155.90 347.63,142.30 359.00,144.23
             361.56,144.67 363.52,145.79 364.83,148.11
             365.89,150.00 365.88,151.92 366.00,154.00
             366.00,154.00 353.00,154.00 353.00,154.00
             357.63,159.08 360.01,157.94 366.00,156.00
             366.00,156.00 366.00,161.00 366.00,161.00
             362.86,161.56 360.24,162.15 357.00,161.90 Z
           M 228.00,151.00
           C 228.00,151.00 235.00,151.00 235.00,151.00
             232.67,147.56 230.38,147.61 228.00,151.00 Z
           M 295.00,151.00
           C 295.00,151.00 302.00,151.00 302.00,151.00
             299.67,147.56 297.38,147.61 295.00,151.00 Z
           M 353.00,151.00
           C 353.00,151.00 360.00,151.00 360.00,151.00
             357.67,147.56 355.38,147.61 353.00,151.00 Z" />
</svg>
